<?xml version="1.0" encoding="UTF-8"?>
<svg id="_图层_2" data-name="图层 2" xmlns="http://www.w3.org/2000/svg" viewBox="0 0 808.29 840">
  <g id="_图层_1-2" data-name="图层 1">
    <g>
      <path d="M444.63,420h80.69s.04-.08,.07-.12c-12.85-22.26-26.29-45.53-40.35-69.88h-.14c-13.99,24.23-27.43,47.51-40.34,69.88,.02,.04,.05,.08,.07,.12Z"/>
      <path d="M767.8,700s.05-.08,.07-.12c-11.94-20.68-25.33-43.87-40.34-69.88h-.14s.04-.08,.07-.12c-12.32-21.34-25.74-44.58-40.35-69.88h-.13s.04-.08,.07-.11c-12.55-21.73-25.98-45-40.35-69.89h-.13s.04-.08,.06-.12c-12.7-21.99-26.13-45.26-40.34-69.88h-.14s.05-.08,.07-.12c12.97-22.47,26.42-45.75,40.34-69.88,.03-.04,.05-.08,.07-.12,13.02-22.55,26.47-45.83,40.35-69.88,.02-.04,.05-.08,.07-.12,13.05-22.61,26.5-45.9,40.34-69.88,.03-.04,.05-.08,.07-.12,13.09-22.67,26.54-45.96,40.35-69.88,.02-.04,.04-.08,.07-.12,13.11-22.72,26.56-46,40.34-69.88,.02-.03,.04-.07,.07-.11-12.97-22.48-26.42-45.76-40.34-69.89h-161.81c-13.79,23.9-27.24,47.19-40.34,69.88,.03,.04,.05,.08,.07,.12h-.14c-13.83,23.95-27.27,47.23-40.34,69.87,.02,.04,.04,.09,.08,.13h-.16c-13.86,24.01-27.3,47.3-40.34,69.89,.03,.04,.05,.07,.06,.11h-.12c-13.91,24.08-27.36,47.37-40.35,69.88,.02,.04,.04,.08,.06,.12h-80.96s.04-.08,.07-.12c-13-22.52-26.44-45.8-40.34-69.88h-.14s.05-.08,.07-.12c-13.04-22.58-26.49-45.87-40.34-69.88h-.16s.05-.08,.08-.13c-13.07-22.64-26.52-45.93-40.34-69.87h-.14s.04-.08,.07-.12c-13.1-22.69-26.55-45.98-40.34-69.88H40.35C26.42,24.13,12.97,47.42,0,69.88c.02,.04,.05,.08,.06,.12,13.79,23.88,67.68,117.21,80.77,139.88,.02,.04,.04,.08,.07,.12,13.84,23.97,27.28,47.26,40.34,69.87,.02,.04,.04,.09,.07,.13,13.88,24.04,27.32,47.32,40.34,69.87,.02,.05,.05,.09,.08,.13,13.92,24.13,27.36,47.41,40.34,69.88,.02,.04,.05,.08,.07,.12h-.14c-14.22,24.63-27.65,47.9-40.34,69.88,.02,.04,.04,.08,.06,.12h-.13c-14.38,24.92-27.81,48.18-40.35,69.89,.03,.04,.05,.07,.07,.11h-.13c-14.63,25.34-28.05,48.58-40.35,69.88,.02,.04,.04,.08,.07,.12h-.14c-15.05,26.08-28.44,49.27-40.34,69.88,.02,.04,.04,.08,.07,.12h-.14c-15.98,27.67-29.27,50.7-40.35,69.87,.03,.04,.05,.09,.08,.13,14.21,24.63,27.65,47.89,40.33,69.87,.03,.04,.05,.09,.08,.13H121.17s.05-.09,.08-.13c.01,.04,.04,.09,.07,.13h80.68s.04-.08,.07-.12c11.59-20.08,24.95-43.21,40.35-69.88,.02-.04,.04-.08,.07-.12,12.13-21.02,25.54-44.24,40.34-69.88,.03-.04,.05-.09,.07-.13,12.44-21.53,25.86-44.78,40.34-69.87,.03-.04,.05-.08,.07-.12,12.62-21.86,26.06-45.12,40.34-69.88,.03-.04,.06-.09,.08-.13,.02,.04,.05,.08,.08,.13h80.67s.05-.09,.08-.13c.02,.04,.05,.09,.07,.13,14.29,24.75,27.72,48.01,40.35,69.88,.02,.04,.04,.08,.07,.12,14.47,25.08,27.89,48.32,40.34,69.87,.02,.04,.04,.09,.07,.13,14.79,25.62,28.2,48.84,40.34,69.88,.03,.04,.05,.08,.07,.12,15.38,26.62,28.74,49.77,40.35,69.88,.03,.04,.05,.08,.07,.12h80.68s.05-.09,.07-.13c.02,.04,.05,.09,.08,.13h80.68s.05-.09,.07-.13c12.7-21.99,26.13-45.25,40.34-69.87,.03-.04,.05-.09,.07-.13-11.15-19.32-24.46-42.37-40.34-69.87h-.14Zm-40.41,70h-80.84s.05-.08,.07-.12c-11.92-20.66-25.31-43.85-40.33-69.88h-.15s.05-.08,.08-.12c-12.32-21.33-25.73-44.57-40.35-69.88h-.14s.05-.08,.07-.12c-12.54-21.73-25.97-44.98-40.34-69.88h-.14s.05-.08,.07-.12c-12.7-21.99-26.13-45.26-40.35-69.88h-161.8c-14.21,24.63-27.65,47.9-40.34,69.88,.02,.04,.05,.08,.07,.12h-.14c-14.38,24.91-27.81,48.16-40.34,69.88,.02,.04,.05,.08,.07,.12h-.14c-14.63,25.33-28.04,48.57-40.35,69.88,.03,.04,.05,.08,.08,.12h-.15c-15.05,26.07-28.43,49.25-40.34,69.88,.02,.04,.04,.08,.07,.12H80.76s.05-.09,.07-.13c11.58-20.06,24.94-43.19,40.34-69.87,.03-.04,.05-.08,.07-.12,12.14-21.02,25.54-44.23,40.34-69.88,.03-.04,.06-.09,.08-.13,12.43-21.53,25.85-44.78,40.34-69.87,.03-.04,.05-.08,.07-.12,12.62-21.86,26.05-45.12,40.34-69.88,.03-.04,.05-.08,.07-.12,12.75-22.08,26.19-45.35,40.34-69.88,.03-.04,.06-.08,.08-.13-12.95-22.42-26.39-45.7-40.34-69.87h-.14s.04-.08,.07-.12c-13-22.51-26.44-45.8-40.35-69.88h-.14s.05-.08,.07-.13c-13.04-22.58-26.48-45.86-40.34-69.87h-.14s.04-.09,.07-.13c-13.08-22.64-26.52-45.92-40.35-69.87h-.14s.05-.09,.07-.13c-13.1-22.69-26.54-45.97-40.34-69.87h-.14s.05-.08,.07-.12c.03,.04,.05,.08,.07,.12h80.69s.04-.08,.07-.12c.02,.04,.05,.08,.07,.12,13.81,23.92,27.25,47.2,40.34,69.87,.02,.04,.05,.09,.08,.13,13.83,23.97,27.28,47.26,40.33,69.87,.03,.04,.05,.09,.08,.13,13.88,24.04,27.32,47.33,40.35,69.88,0,.04,.04,.08,.06,.12,13.93,24.12,27.37,47.41,40.35,69.88,.02,.04,.04,.08,.07,.12h80.69s.04-.08,.07-.12c.02,.04,.04,.08,.06,.12h80.69s.05-.08,.07-.12c12.97-22.47,26.42-45.75,40.35-69.88,.02-.04,.05-.08,.07-.12,13.02-22.55,26.46-45.84,40.34-69.88,.03-.04,.05-.08,.08-.12,13.05-22.61,26.49-45.9,40.33-69.88,.03-.04,.05-.08,.07-.12,13.09-22.67,26.54-45.96,40.36-69.88,.02-.04,.04-.08,.07-.12,.01,.04,.04,.08,.06,.12h80.69s.04-.08,.07-.12c.03,.04,.05,.08,.07,.12h-.14c-13.8,23.9-27.24,47.18-40.35,69.87,.03,.05,.05,.09,.08,.13h-.15c-13.82,23.95-27.27,47.23-40.34,69.87,.02,.04,.05,.09,.07,.13h-.14c-13.86,24.01-27.31,47.3-40.34,69.88,.02,.04,.05,.08,.07,.12h-.14c-13.91,24.08-27.36,47.37-40.35,69.88,.02,.04,.05,.08,.07,.12h-.14c-13.96,24.17-27.4,47.45-40.34,69.88,.02,.04,.04,.08,.06,.12,14.16,24.52,27.6,47.79,40.36,69.89,.02,.04,.04,.07,.06,.11,14.29,24.74,27.72,48.01,40.35,69.89,.02,.04,.04,.07,.07,.11,14.47,25.08,27.89,48.32,40.34,69.88,.02,.04,.04,.08,.07,.12,14.78,25.61,28.19,48.83,40.34,69.88,.03,.04,.05,.08,.07,.12,15.36,26.61,28.73,49.75,40.35,69.88,.02,.04,.05,.08,.06,.12h-.13Z"/>
      <path d="M404.14,489.87c12.85-22.24,26.29-45.52,40.35-69.87h-80.69c14.06,24.34,27.49,47.62,40.34,69.87Z"/>
      <path d="M363.66,420s.04-.08,.07-.12c-12.92-22.38-26.36-45.66-40.34-69.88h-.14c-14.06,24.35-27.5,47.63-40.35,69.87,.02,.04,.05,.09,.07,.13h80.69Z"/>
    </g>
  </g>
</svg>